<?xml version="1.0" encoding="UTF-8" standalone="no"?>
<!-- Created with Inkscape (http://www.inkscape.org/) -->

<svg
   xmlns:dc="http://purl.org/dc/elements/1.1/"
   xmlns:cc="http://creativecommons.org/ns#"
   xmlns:rdf="http://www.w3.org/1999/02/22-rdf-syntax-ns#"
   xmlns:svg="http://www.w3.org/2000/svg"
   xmlns="http://www.w3.org/2000/svg"
   xmlns:sodipodi="http://sodipodi.sourceforge.net/DTD/sodipodi-0.dtd"
   xmlns:inkscape="http://www.inkscape.org/namespaces/inkscape"
   id="svg2"
   version="1.1"
   inkscape:version="0.48.3.1 r9886"
   width="2048"
   height="1536"
   sodipodi:docname="a.svg">
  <metadata
     id="metadata8">
    <rdf:RDF>
      <cc:Work
         rdf:about="">
        <dc:format>image/svg+xml</dc:format>
        <dc:type
           rdf:resource="http://purl.org/dc/dcmitype/StillImage" />
        <dc:title></dc:title>
      </cc:Work>
    </rdf:RDF>
  </metadata>
  <defs
     id="defs6" />
  <sodipodi:namedview
     pagecolor="#ffffff"
     bordercolor="#666666"
     borderopacity="1"
     objecttolerance="10"
     gridtolerance="10"
     guidetolerance="10"
     inkscape:pageopacity="0"
     inkscape:pageshadow="2"
     inkscape:window-width="1366"
     inkscape:window-height="699"
     id="namedview4"
     showgrid="false"
     inkscape:zoom="0.30729167"
     inkscape:cx="762.91718"
     inkscape:cy="955.166"
     inkscape:window-x="0"
     inkscape:window-y="33"
     inkscape:window-maximized="1"
     inkscape:current-layer="svg2" />
  <path
     style="fill:none;stroke:#000000;stroke-width:0.55736923px;stroke-linecap:butt;stroke-linejoin:miter;stroke-opacity:1"
     d="M 597.5193,1033.3885 C 450.02533,870.56894 485.00739,748.63596 485.06297,748.62008 c -1.54942,-65.01116 25.28548,-113.97089 56.22817,-165.05686 43.70097,-57.15529 106.41433,-79.30206 155.9878,-83.43535 54.51529,-13.45207 113.51385,-8.83087 154.17401,14.51049"
     id="path2987"
     inkscape:connector-curvature="0"
     sodipodi:nodetypes="ccccc" />
  <path
     style="fill:none;stroke:#000000;stroke-width:0.55736923px;stroke-linecap:butt;stroke-linejoin:miter;stroke-opacity:1"
     d="m 851.22622,514.46832 86.22719,-25.66342 83.43539,4.15888 74.9887,40.03275 24.0196,21.5457 68.9248,-45.3453 c 32.8784,-3.22865 70.2232,-21.36412 112.5853,-8.22661 20.1996,3.82964 19.5033,0.74662 48.844,15.48186 19.6051,13.67789 41.9091,10.03175 58.7933,36.36739 12.4126,20.10734 29.8665,34.2468 42.7801,63.39225 15.2765,37.30815 21.776,71.10553 19.952,101.57347 8.2139,41.71767 9.8371,74.45743 7.4753,123.87045 -0.5415,25.99797 7.3159,40.45291 -7.5665,81.84156 -11.2476,31.81187 -17.2763,63.26558 -54.3232,86.3116 -10.1097,13.3708 -36.5838,15.8319 -55.788,23.1395 -30.1138,-7.273 -71.7331,1.3828 -88.7856,-41.8088 -30.6704,-26.49255 -26.4151,-62.67841 -31.3661,-95.60074 -8.2524,-34.39176 6.7842,-61.02048 18.1381,-88.8768 16.8289,-23.34849 25.4251,-58.14222 64.2347,-68.30245 24.1842,-15.73217 45.8032,-10.85256 69.9873,-6.06383 7.1485,-32.92423 -2.74,-66.07815 -22.8281,-92.1932 -22.3076,-38.16011 -34.9161,-45.21884 -55.4769,-56.88832 -45.4859,-18.50748 -70.9116,-17.24388 -101.6647,-4.37893 -16.716,7.76513 -47.993,32.95737 -58.0797,67.23994 l 0.4401,44.50284 1.8138,335.55519 -73.4536,-0.5032 -2.5652,-355.91004 c -0.356,-23.71316 -10.7718,-43.40244 -28.2162,-60.28025 -16.8541,-17.39269 -30.463,-37.21929 -60.28027,-44.88956 -24.83184,-16.78031 -40.44973,-5.91883 -58.99773,-3.84768 15.21978,20.58931 44.61155,31.91866 47.45466,65.4105 15.17725,23.8129 13.34351,47.55825 8.97792,67.97561 4.59275,24.55914 -13.50986,40.6313 -25.65117,55.15001 l -17.95583,14.10815 c 25.77338,16.77796 39.0068,38.82856 41.04188,58.9977 3.70243,29.39401 14.69014,60.69876 5.13027,100.03952 -11.66136,28.41527 -13.00413,59.40294 -50.01982,84.64894 -19.56146,22.0472 -50.98015,27.543 -80.80119,25.6511 -32.18406,1.2969 -64.50452,1.6392 -100.03958,-20.5209 -21.46036,-22.83962 -44.45103,-39.55807 -64.3291,-68.72688 -14.36251,-40.53702 -33.31462,-72.64359 -29.93895,-101.21213 -2.52122,-33.92846 7.92445,-60.542 10.65499,-90.79604 10.79987,-27.90696 15.19428,-57.13398 27.06264,-79.51863 8.21,-38.02801 42.79035,-66.23768 62.96322,-89.40344 l 23.08606,-17.95583 c -37.99156,-5.38467 -70.52107,5.61676 -103.88726,14.10815 -31.60065,11.51983 -66.97768,23.1484 -91.37286,58.68649 -18.9308,24.32012 -32.99336,26.32737 -44.6695,102.9159 -3.22003,42.32443 0.92524,84.64886 21.8035,126.97329 10.67645,26.50625 32.04467,53.01243 47.54582,79.51861 18.3026,29.25669 29.92636,38.47677 44.88955,57.71521 l 15.39071,16.6732 14.74941,11.543 -99.5586,0.3207"
     id="path2991"
     inkscape:connector-curvature="0"
     sodipodi:nodetypes="ccccccccccccccccccccccccccccccccccccccccccccccccccccccc" />
  <path
     style="fill:none;stroke:#000000;stroke-width:0.55736923px;stroke-linecap:butt;stroke-linejoin:miter;stroke-opacity:1"
     d="m 843.41244,605.65659 c -21.47021,8.86261 -27.73366,26.05703 -48.51718,50.92668 -14.32901,21.84199 -27.19471,42.74814 -34.62907,70.54073 -6.88152,16.9424 -10.90964,40.62572 -15.92196,64.43913 -8.94831,26.39007 -4.47211,49.13012 1.28255,79.73869 7.22656,24.26561 21.87107,46.14059 38.85242,64.28349 5.52419,9.99429 23.61079,25.90996 48.67277,25.27552 14.29832,-3.06963 22.361,4.77309 45.2652,-13.35677 11.20906,-18.43847 24.06622,-24.82006 26.93374,-62.84541 3.19475,-25.46653 -6.95561,-51.15923 -29.8745,-61.03155 -17.08488,-9.485 -34.40172,-18.71706 -56.58819,-22.64596 -13.43528,-15.99676 -10.97253,-25.3783 -7.9154,-36.66294 3.60171,-23.11328 18.03882,-29.25268 33.72218,-33.03533 l 44.88955,-5.13024 c 16.9232,-5.73533 27.23037,-18.08669 32.06396,-35.91163 l -3.84768,-42.32443 c -10.26201,-23.08244 -15.41533,-24.52966 -42.54448,-39.69487 -13.93996,-2.34867 -22.43848,-2.11248 -31.84391,-2.56511 z"
     id="path2993"
     inkscape:connector-curvature="0"
     sodipodi:nodetypes="cccccccccccccccccc" />
  <path
     style="fill:none;stroke:#000000;stroke-width:0.55736923px;stroke-linecap:butt;stroke-linejoin:miter;stroke-opacity:1"
     d="m 1366.6964,808.23639 c -26.9835,13.28955 -41.9088,28.85562 -47.3902,46.92342 -10.3668,20.20018 -5.5759,40.45237 -3.9121,58.24638 2.1248,21.50511 14.1349,28.18238 25.6511,35.60044 14.3247,4.02914 36.8584,7.56318 44.605,-11.0118 10.4035,-17.70269 19.9352,-30.84174 23.2417,-59.74897 1.5162,-21.68991 0.5751,-23.11781 -1.0626,-38.00996 -3.9703,-15.35512 -19.5234,-24.49036 -25.8364,-28.1324 z"
     id="path2995"
     inkscape:connector-curvature="0"
     sodipodi:nodetypes="ccccccccc" />
</svg>
